<svg fill="none" height="16" viewBox="0 0 16 16" width="16" xmlns="http://www.w3.org/2000/svg"><g clip-rule="evenodd" fill="#c5c5c5" fill-rule="evenodd"><path d="m5.56253 2.51577c-2.09905.93433-3.56253 3.03837-3.56253 5.48422 0 3.31371 2.68629 6.00001 6 6.00001 3.3137 0 6-2.6863 6-6.00001 0-2.6748-1.7503-4.9408-4.16801-5.71517l-.30231.9535c2.01322.64622 3.47032 2.53378 3.47032 4.76167 0 2.76141-2.2386 5.00001-5 5.00001-2.76142 0-5-2.2386-5-5.00001 0-1.68895.83742-3.18232 2.11969-4.08754z"/><path d="m5 3h-3v-1h3.5l.5.5v3.5h-1z"/></g></svg>